# xmcd
#
# Track frame offsets: 
#        150
#        9682
#        22796
#        37934
#        51557
#        64370
#        77379
#        95991
#        110502
#        119397
#        132236
#        142985
#
# Disc length: 2058 seconds
#
# Revision: 0
# Processed by: cddbd v1.5.2PL0 Copyright (c) Steve Scherf et al.
# Submitted via: ExactAudioCopyFreeDBPlugin 1.0
#
DISCID=a008080c
DTITLE=Randy Buckner - Thumbin' the Strings
DYEAR=2017
DGENRE=Country
TTITLE0=Alabamy Bound
TTITLE1=Bronwyn's Song
TTITLE2=Rockin' Chair
TTITLE3=Claudette's Smiling Eyes
TTITLE4=I'm Confessin'
TTITLE5=Flying 'A' Boys
TTITLE6=When it's Sleepy Time Down South
TTITLE7=You Always Hurt the One You Love
TTITLE8=So Round So Firm
TTITLE9=Tahlequah Shuffle
TTITLE10=Moht and Elrem
TTITLE11=Thumbin ' the Strings
EXTD=
EXTT0=
EXTT1=
EXTT2=
EXTT3=
EXTT4=
EXTT5=
EXTT6=
EXTT7=
EXTT8=
EXTT9=
EXTT10=
EXTT11=
PLAYORDER=
